# xmcd
#
# Track frame offsets:
#	150
#	8176
#	17014
#	20450
#	31639
#	42226
#	49324
#	62052
#	68183
#	78192
#	80822
#	92591
#	102406
#	113720
#	119619
#	132475
#
# Disc length: 1927 seconds
#
# Revision: 1
# Processed by: cddbd v1.5.2PL0 Copyright (c) Steve Scherf et al.
# Submitted via: audiograbber 1.83.01
#
DISCID=ce078510
DTITLE=Venerea - Lean back in anger
DYEAR=2010
DGENRE=Punk
TTITLE0=Molokai
TTITLE1=Better day
TTITLE2=Forever Jugend
TTITLE3=Heads they win, tails you lose
TTITLE4=Protest song
TTITLE5=Invitation to action
TTITLE6=Absentee
TTITLE7=Wake up! Smell the napalm!
TTITLE8=The real ewe
TTITLE9=Meanwhile, in Zimbabwe
TTITLE10=Government subsidized ghetto
TTITLE11=Kill yourself or be killed
TTITLE12=Solitary hearts
TTITLE13=The bomb
TTITLE14=Lean back in anger
TTITLE15=We rot
EXTD=
EXTT0=
EXTT1=
EXTT2=
EXTT3=
EXTT4=
EXTT5=
EXTT6=
EXTT7=
EXTT8=
EXTT9=
EXTT10=
EXTT11=
EXTT12=
EXTT13=
EXTT14=
EXTT15=
PLAYORDER=
